<?xml version="1.0" encoding="UTF-8"?><svg id="Calque_2" xmlns="http://www.w3.org/2000/svg" viewBox="0 0 116.51 116.51"><defs><style>.cls-1{fill:none;stroke:#1d1d1b;stroke-miterlimit:10;stroke-width:5px;}</style></defs><g id="Calque_3"><path class="cls-1" d="m114.01,58.26c0,30.79-24.96,55.76-55.76,55.76S2.5,89.05,2.5,58.26"/><path class="cls-1" d="m2.5,58.26C2.5,27.46,27.46,2.5,58.26,2.5s55.76,24.96,55.76,55.76"/><path class="cls-1" d="m16.15,57.7c0-23.02,18.66-41.67,41.67-41.67s41.67,18.66,41.67,41.67"/><path class="cls-1" d="m30.72,58.54c0-15.04,12.19-27.23,27.23-27.23s27.23,12.19,27.23,27.23"/><line class="cls-1" x1="69.1" y1="58.48" x2="114.1" y2="58.48"/><line class="cls-1" x1="2.1" y1="58.48" x2="48.1" y2="58.48"/><line class="cls-1" x1="81.1" y1="72.48" x2="114.1" y2="72.48"/><line class="cls-1" x1="2.1" y1="72.48" x2="36.1" y2="72.48"/><line class="cls-1" x1="92.1" y1="86.48" x2="106.1" y2="86.48"/><line class="cls-1" x1="10.1" y1="86.48" x2="24.1" y2="86.48"/><polyline class="cls-1" points="16.87 95.61 58.26 46.49 99.64 95.61"/><line class="cls-1" x1="45.78" y1="112.61" x2="67.56" y2="84.52"/><line class="cls-1" x1="56.9" y1="98.56" x2="68.94" y2="112.99"/><line class="cls-1" x1="29.08" y1="105.77" x2="67.56" y2="58.54"/><line class="cls-1" x1="57.95" y1="72.45" x2="85.67" y2="107.68"/></g></svg>